<svg width="64" height="64" xmlns="http://www.w3.org/2000/svg" xmlns:svg="http://www.w3.org/2000/svg">
 <defs>
  <style>.cls-1{fill:#DCDCDC}.cls-2{fill:none}</style>
 </defs>
 <g>
  <title>Layer 1</title>
  <g id="Group_53">
   <g id="Group_3475">
    <g id="Group_3388">
     <path id="Path_11" d="m14.733,34.040987a3.7,3.7 0 0 0 3.733,-3.733l-7.466,0a3.7,3.7 0 0 0 3.733,3.733z" class="cls-1"/>
     <ellipse id="Ellipse_1" cx="46.149999" cy="32.175" class="cls-1" rx="0.933" ry="1.244"/>
     <path id="Path_12" d="m52.059999,20.354995l-7.465,0l-1.244,-4.355l-6.221,11.2l8.088,3.733l0.622,-4.355l0.622,0c3.083,-0.002 5.598,-3.073 5.598,-6.223zm-6.221,3.111c-0.431,0 -0.622,-0.191 -0.622,-0.622s0.191,-1.244 0.622,-1.244s0.622,0.813 0.622,1.244a0.55,0.55 0 0 1 -0.622,0.622z" class="cls-1"/>
     <path id="Path_13" d="m21.575999,48.971997l1.244,-8.088l15.553,1.866l1.244,6.221l3.111,0l0,-5.6l1.866,-10.576l-8.088,-3.733l-18.041,1.244l0,18.664l3.111,0.002z" class="cls-1"/>
    </g>
   </g>
   <path id="Rectangle_17756" d="m0,0l64,0l0,64l-64,0l0,-64z" class="cls-2"/>
  </g>
 </g>
</svg>